<svg width="50" height="48" viewBox="0 0 50 48" fill="none" xmlns="http://www.w3.org/2000/svg">
<g clip-path="url(#clip0_3_39)">
<path d="M22.9167 0V6H27.0833V0H22.9167ZM8.7972 5.61719L5.85124 8.44531L10.2702 12.6875L13.2161 9.85938L8.7972 5.61719ZM41.2028 5.61719L36.7839 9.85938L39.7298 12.6875L44.1488 8.44531L41.2028 5.61719ZM25 10C21.1323 10 17.4229 11.475 14.688 14.1005C11.9531 16.726 10.4167 20.287 10.4167 24C10.4167 27.713 11.9531 31.274 14.688 33.8995C17.4229 36.525 21.1323 38 25 38C28.8677 38 32.5771 36.525 35.312 33.8995C38.0469 31.274 39.5833 27.713 39.5833 24C39.5833 20.287 38.0469 16.726 35.312 14.1005C32.5771 11.475 28.8677 10 25 10ZM0 22V26H6.25V22H0ZM43.75 22V26H50V22H43.75ZM10.2702 35.3125L5.85124 39.5547L8.7972 42.3828L13.2161 38.1406L10.2702 35.3125ZM39.7298 35.3125L36.7839 38.1406L41.2028 42.3828L44.1488 39.5547L39.7298 35.3125ZM22.9167 42V48H27.0833V42H22.9167Z" fill="#FF9900"/>
</g>
<defs>
<clipPath id="clip0_3_39">
<rect width="50" height="48" fill="white"/>
</clipPath>
</defs>
</svg>
